<svg width="32" height="32" viewBox="0 0 28 28" xmlns="http://www.w3.org/2000/svg">
<path fill="#4285F4" d="M26.7 14.3c0-.9-.1-1.7-.2-2.5H14v4.8h7.1c-.3 1.6-1.2 3-2.6 3.9v3.2h4.2c2.5-2.3 4-5.7 4-9.4z"/>
<path fill="#34A853" d="M14 27c3.5 0 6.5-1.2 8.7-3.2l-4.2-3.2c-1.2.8-2.7 1.3-4.5 1.3-3.4 0-6.3-2.3-7.3-5.4H2.4v3.3C4.5 24.1 8.9 27 14 27z"/>
<path fill="#FBBC05" d="M6.7 16.5c-.3-.8-.4-1.6-.4-2.5s.1-1.7.4-2.5V8.2H2.4C1.5 9.9 1 11.9 1 14s.5 4.1 1.4 5.8l4.3-3.3z"/>
<path fill="#EA4335" d="M14 6.1c1.9 0 3.6.7 5 2l3.7-3.7C20.5 2.3 17.5 1 14 1 8.9 1 4.5 3.9 2.4 8.2l4.3 3.3C7.7 8.4 10.6 6.1 14 6.1z"/>
</svg>