<svg width="520" height="250" viewBox="0 0 520 250" fill="none" xmlns="http://www.w3.org/2000/svg"><rect width="520" height="250" rx="28" fill="#F8FBFF"/><circle cx="370" cy="125" r="92" fill="#EAF3FF"/><circle cx="430" cy="104" r="46" fill="#DFFFD8"/><rect x="250" y="72" width="160" height="96" rx="16" fill="#0A84FF" opacity="0.9"/><circle cx="285" cy="115" r="18" fill="#DDE7FF"/><rect x="315" y="96" width="64" height="8" rx="4" fill="#DDE7FF"/><rect x="315" y="116" width="80" height="8" rx="4" fill="#DDE7FF"/><rect x="315" y="136" width="54" height="8" rx="4" fill="#DDE7FF"/><path d="M430 189C430 150 452 132 485 128C478 162 459 183 430 189Z" fill="#62D62F" opacity="0.45"/><path d="M426 189C421 149 402 130 369 120C370 157 390 184 426 189Z" fill="#0A84FF" opacity="0.25"/><circle cx="72" cy="86" r="42" fill="#EAF3FF" stroke="#0A84FF" stroke-width="4"/><circle cx="72" cy="74" r="16" fill="#0A84FF"/><path d="M42 121C47 101 58 93 72 93C86 93 97 101 102 121" fill="#DFFFD8"/><circle cx="118" cy="122" r="18" fill="#0A84FF"/><path d="M110 122L116 128L128 115" stroke="white" stroke-width="4" stroke-linecap="round"/></svg>